<svg width="21" height="21" viewBox="0 0 21 21" fill="none" xmlns="http://www.w3.org/2000/svg">
<g clip-path="url(#clip0_380_10222)">
<path d="M11.1423 6.58756H9.47559V9.9209H6.14225V11.5876H9.47559V14.9209H11.1423V11.5876H14.4756V9.9209H11.1423V6.58756ZM10.3089 2.4209C5.70892 2.4209 1.97559 6.15423 1.97559 10.7542C1.97559 15.3542 5.70892 19.0876 10.3089 19.0876C14.9089 19.0876 18.6423 15.3542 18.6423 10.7542C18.6423 6.15423 14.9089 2.4209 10.3089 2.4209ZM10.3089 17.4209C6.63392 17.4209 3.64225 14.4292 3.64225 10.7542C3.64225 7.07923 6.63392 4.08757 10.3089 4.08757C13.9839 4.08757 16.9756 7.07923 16.9756 10.7542C16.9756 14.4292 13.9839 17.4209 10.3089 17.4209Z" fill="#999999"/>
</g>
<defs>
<clipPath id="clip0_380_10222">
<rect width="20" height="20" fill="white" transform="translate(0.308594 0.753906)"/>
</clipPath>
</defs>
</svg>
