<svg width="33" height="33" viewBox="0 0 33 33" fill="none" xmlns="http://www.w3.org/2000/svg">
<path d="M23.3417 14.351C23.075 14.6176 22.7528 14.7456 22.375 14.735C21.9972 14.7234 21.675 14.5843 21.4083 14.3176L17.6417 10.551L17.6417 25.4176C17.6417 25.7954 17.5137 26.1123 17.2577 26.3683C17.0026 26.6234 16.6861 26.751 16.3083 26.751C15.9306 26.751 15.6137 26.6234 15.3577 26.3683C15.1026 26.1123 14.975 25.7954 14.975 25.4176L14.975 10.551L11.175 14.351C10.9083 14.6176 10.5914 14.751 10.2243 14.751C9.85811 14.751 9.54167 14.6176 9.275 14.351C9.00833 14.0843 8.875 13.7674 8.875 13.4003C8.875 13.0341 9.00833 12.7176 9.275 12.451L15.375 6.35098C15.5083 6.21765 15.6528 6.12298 15.8083 6.06698C15.9639 6.01187 16.1306 5.98431 16.3083 5.98431C16.4861 5.98431 16.6528 6.01187 16.8083 6.06698C16.9639 6.12298 17.1083 6.21765 17.2417 6.35098L23.375 12.4843C23.6194 12.7288 23.7417 13.0341 23.7417 13.4003C23.7417 13.7674 23.6083 14.0843 23.3417 14.351Z" fill="white"/>
</svg>
