<svg width="17" height="16" viewBox="0 0 17 16" fill="none" xmlns="http://www.w3.org/2000/svg">
<path d="M7.98737 3.88294L6.7207 5.13294C6.59848 5.25516 6.4457 5.31905 6.26237 5.32461C6.07904 5.33016 5.9207 5.26628 5.78737 5.13294C5.66515 5.01072 5.60404 4.85516 5.60404 4.66628C5.60404 4.47739 5.66515 4.32183 5.78737 4.19961L8.18737 1.79961C8.3207 1.66628 8.47626 1.59961 8.65404 1.59961C8.83181 1.59961 8.98737 1.66628 9.1207 1.79961L11.5207 4.19961C11.654 4.33294 11.7179 4.4885 11.7124 4.66628C11.7068 4.84405 11.6374 4.99961 11.504 5.13294C11.3707 5.25517 11.2151 5.31905 11.0374 5.32461C10.8596 5.33017 10.704 5.26628 10.5707 5.13294L9.3207 3.88294L9.3207 12.0996L10.5707 10.8496C10.704 10.7163 10.8624 10.6496 11.0457 10.6496C11.229 10.6496 11.3874 10.7163 11.5207 10.8496C11.654 10.9829 11.7207 11.1413 11.7207 11.3246C11.7207 11.5079 11.654 11.6663 11.5207 11.7996L9.1207 14.1996C8.98737 14.3329 8.83181 14.3996 8.65404 14.3996C8.47626 14.3996 8.3207 14.3329 8.18737 14.1996L5.78737 11.7996C5.66515 11.6774 5.60126 11.5246 5.5957 11.3413C5.59015 11.1579 5.65404 10.9996 5.78737 10.8663C5.9207 10.7329 6.07904 10.6635 6.26237 10.6579C6.4457 10.6524 6.60404 10.7163 6.73737 10.8496L7.98737 12.0996L7.98737 3.88294Z" fill="black"/>
</svg>
