<svg width="24" height="22" viewBox="0 0 24 22" fill="none" xmlns="http://www.w3.org/2000/svg">
<g clip-path="url(#clip0_144_38193)">
<path d="M18.7406 7.33366L14.8894 11.0003H17.7778C17.7778 14.0345 15.1879 16.5003 12.001 16.5003C11.0285 16.5003 10.1043 16.2712 9.30513 15.8587L7.89944 17.197C9.08369 17.912 10.4894 18.3337 12.001 18.3337C16.2566 18.3337 19.7034 15.052 19.7034 11.0003H22.5918L18.7406 7.33366ZM6.22417 11.0003C6.22417 7.96616 8.8141 5.50033 12.001 5.50033C12.9734 5.50033 13.8977 5.72949 14.6968 6.14199L16.1025 4.80366C14.9183 4.08866 13.5126 3.66699 12.001 3.66699C7.74539 3.66699 4.29856 6.94866 4.29856 11.0003H1.41016L5.26136 14.667L9.11257 11.0003H6.22417Z" fill="black"/>
</g>
<defs>
<clipPath id="clip0_144_38193">
<rect width="24" height="22" fill="white"/>
</clipPath>
</defs>
</svg>
