<svg width="23" height="25" viewBox="0 0 23 25" fill="none" xmlns="http://www.w3.org/2000/svg">
<g clip-path="url(#clip0_183_2415)">
<path d="M11.1833 7.34375V3.34375H2.0166V21.3438H20.3499V7.34375H11.1833ZM5.68327 19.3438H3.84993V17.3438H5.68327V19.3438ZM5.68327 15.3438H3.84993V13.3438H5.68327V15.3438ZM5.68327 11.3438H3.84993V9.34375H5.68327V11.3438ZM5.68327 7.34375H3.84993V5.34375H5.68327V7.34375ZM9.34994 19.3438H7.5166V17.3438H9.34994V19.3438ZM9.34994 15.3438H7.5166V13.3438H9.34994V15.3438ZM9.34994 11.3438H7.5166V9.34375H9.34994V11.3438ZM9.34994 7.34375H7.5166V5.34375H9.34994V7.34375ZM18.5166 19.3438H11.1833V17.3438H13.0166V15.3438H11.1833V13.3438H13.0166V11.3438H11.1833V9.34375H18.5166V19.3438ZM16.6833 11.3438H14.8499V13.3438H16.6833V11.3438ZM16.6833 15.3438H14.8499V17.3438H16.6833V15.3438Z" fill="#4446A9"/>
</g>
<defs>
<clipPath id="clip0_183_2415">
<rect width="22" height="24" fill="white" transform="translate(0.183594 0.34375)"/>
</clipPath>
</defs>
</svg>
