<svg width="25" height="25" viewBox="0 0 25 25" fill="none" xmlns="http://www.w3.org/2000/svg">
<rect width="24" height="24" transform="translate(0.307617 0.34375)" fill="white"/>
<g clip-path="url(#clip0_183_2383)">
<path d="M9.30762 11.3438H7.30762V13.3438H9.30762V11.3438ZM13.3076 11.3438H11.3076V13.3438H13.3076V11.3438ZM17.3076 11.3438H15.3076V13.3438H17.3076V11.3438ZM19.3076 4.34375H18.3076V2.34375H16.3076V4.34375H8.30762V2.34375H6.30762V4.34375H5.30762C4.19762 4.34375 3.31762 5.24375 3.31762 6.34375L3.30762 20.3438C3.30762 21.4438 4.19762 22.3438 5.30762 22.3438H19.3076C20.4076 22.3438 21.3076 21.4438 21.3076 20.3438V6.34375C21.3076 5.24375 20.4076 4.34375 19.3076 4.34375ZM19.3076 20.3438H5.30762V9.34375H19.3076V20.3438Z" fill="#4446A9"/>
</g>
<defs>
<clipPath id="clip0_183_2383">
<rect width="24" height="24" fill="white" transform="translate(0.307617 0.34375)"/>
</clipPath>
</defs>
</svg>
