<svg width="25" height="25" viewBox="0 0 25 25" fill="none" xmlns="http://www.w3.org/2000/svg">
<rect width="24" height="24" transform="translate(0.654297 0.34375)" fill="white"/>
<g clip-path="url(#clip0_183_2374)">
<path d="M9.6543 11.3438H7.6543V13.3438H9.6543V11.3438ZM13.6543 11.3438H11.6543V13.3438H13.6543V11.3438ZM17.6543 11.3438H15.6543V13.3438H17.6543V11.3438ZM19.6543 4.34375H18.6543V2.34375H16.6543V4.34375H8.6543V2.34375H6.6543V4.34375H5.6543C4.5443 4.34375 3.6643 5.24375 3.6643 6.34375L3.6543 20.3438C3.6543 21.4438 4.5443 22.3438 5.6543 22.3438H19.6543C20.7543 22.3438 21.6543 21.4438 21.6543 20.3438V6.34375C21.6543 5.24375 20.7543 4.34375 19.6543 4.34375ZM19.6543 20.3438H5.6543V9.34375H19.6543V20.3438Z" fill="#999999"/>
</g>
<defs>
<clipPath id="clip0_183_2374">
<rect width="24" height="24" fill="white" transform="translate(0.654297 0.34375)"/>
</clipPath>
</defs>
</svg>
