<svg width="33" height="33" viewBox="0 0 33 33" fill="none" xmlns="http://www.w3.org/2000/svg">
<path d="M16.6544 18.0957L10.121 24.6291C9.87658 24.8735 9.56547 24.9957 9.1877 24.9957C8.80992 24.9957 8.49881 24.8735 8.25436 24.6291C8.00992 24.3846 7.8877 24.0735 7.8877 23.6957C7.8877 23.318 8.00992 23.0068 8.25436 22.7624L14.7877 16.2291L8.25436 9.69574C8.00992 9.45129 7.8877 9.14018 7.8877 8.7624C7.8877 8.38462 8.00992 8.07351 8.25436 7.82907C8.49881 7.58462 8.80992 7.4624 9.1877 7.4624C9.56547 7.4624 9.87658 7.58462 10.121 7.82907L16.6544 14.3624L23.1877 7.82907C23.4321 7.58462 23.7433 7.4624 24.121 7.4624C24.4988 7.4624 24.8099 7.58462 25.0544 7.82907C25.2988 8.07351 25.421 8.38462 25.421 8.7624C25.421 9.14018 25.2988 9.45129 25.0544 9.69574L18.521 16.2291L25.0544 22.7624C25.2988 23.0068 25.421 23.318 25.421 23.6957C25.421 24.0735 25.2988 24.3846 25.0544 24.6291C24.8099 24.8735 24.4988 24.9957 24.121 24.9957C23.7433 24.9957 23.4321 24.8735 23.1877 24.6291L16.6544 18.0957Z" fill="white"/>
</svg>
