<svg width="25" height="25" viewBox="0 0 25 25" fill="none" xmlns="http://www.w3.org/2000/svg">
<g clip-path="url(#clip0_183_2452)">
<path d="M9.6543 12.0938C8.9643 12.0938 8.4043 12.6538 8.4043 13.3438C8.4043 14.0337 8.9643 14.5938 9.6543 14.5938C10.3443 14.5938 10.9043 14.0337 10.9043 13.3438C10.9043 12.6538 10.3443 12.0938 9.6543 12.0938ZM15.6543 12.0938C14.9643 12.0938 14.4043 12.6538 14.4043 13.3438C14.4043 14.0337 14.9643 14.5938 15.6543 14.5938C16.3443 14.5938 16.9043 14.0337 16.9043 13.3438C16.9043 12.6538 16.3443 12.0938 15.6543 12.0938ZM12.6543 2.34375C7.1343 2.34375 2.6543 6.82375 2.6543 12.3438C2.6543 17.8638 7.1343 22.3438 12.6543 22.3438C18.1743 22.3438 22.6543 17.8638 22.6543 12.3438C22.6543 6.82375 18.1743 2.34375 12.6543 2.34375ZM12.6543 20.3438C8.2443 20.3438 4.6543 16.7537 4.6543 12.3438C4.6543 12.0538 4.6743 11.7638 4.7043 11.4838C7.0643 10.4338 8.9343 8.50375 9.9143 6.11375C11.7243 8.67375 14.7043 10.3438 18.0743 10.3438C18.8543 10.3438 19.6043 10.2537 20.3243 10.0837C20.5343 10.7937 20.6543 11.5538 20.6543 12.3438C20.6543 16.7537 17.0643 20.3438 12.6543 20.3438Z" fill="#4446A9"/>
</g>
<defs>
<clipPath id="clip0_183_2452">
<rect width="24" height="24" fill="white" transform="translate(0.654297 0.34375)"/>
</clipPath>
</defs>
</svg>
