<svg width="26" height="26" viewBox="0 0 26 26" fill="none" xmlns="http://www.w3.org/2000/svg">
<path d="M24.0051 17.9809C22.2897 17.9809 20.6429 17.7037 19.1059 17.1908C18.6256 17.0383 18.0904 17.1492 17.7061 17.5235L14.687 20.5732C10.8033 18.577 7.61951 15.3748 5.64336 11.4517L8.66248 8.3881C9.04673 8.01381 9.15652 7.47317 9.00556 6.98799C8.4978 5.43539 8.22334 3.77189 8.22334 2.03908C8.22334 1.27664 7.60579 0.652832 6.85101 0.652832H2.04786C1.29308 0.652832 0.675537 1.27664 0.675537 2.03908C0.675537 15.056 11.1189 25.6053 24.0051 25.6053C24.7599 25.6053 25.3774 24.9815 25.3774 24.2191V19.3672C25.3774 18.6047 24.7599 17.9809 24.0051 17.9809ZM13.0265 0.652832V14.5153L17.1435 10.3566H25.3774V0.652832H13.0265Z" fill="#999999"/>
</svg>
