<svg width="27" height="28" viewBox="0 0 27 28" fill="none" xmlns="http://www.w3.org/2000/svg">
<path d="M9.0882 12.7421H6.26766V15.5162H9.0882V12.7421ZM14.7293 12.7421H11.9087V15.5162H14.7293V12.7421ZM20.3703 12.7421H17.5498V15.5162H20.3703V12.7421ZM23.1909 3.03247H21.7806V0.258301H18.9601V3.03247H7.67793V0.258301H4.85739V3.03247H3.44712C1.88173 3.03247 0.64069 4.28085 0.64069 5.80664L0.626587 25.2258C0.626587 26.7516 1.88173 28 3.44712 28H23.1909C24.7422 28 26.0114 26.7516 26.0114 25.2258V5.80664C26.0114 4.28085 24.7422 3.03247 23.1909 3.03247ZM23.1909 25.2258H3.44712V9.9679H23.1909V25.2258Z" fill="#999999"/>
</svg>
