<svg width="48" height="49" viewBox="0 0 48 49" fill="none" xmlns="http://www.w3.org/2000/svg">
<path d="M0 8.50366C0 4.08539 3.58172 0.503662 8 0.503662H40C44.4183 0.503662 48 4.08538 48 8.50366V40.5037C48 44.9219 44.4183 48.5037 40 48.5037H8C3.58172 48.5037 0 44.9219 0 40.5037V8.50366Z" fill="#CBCBCB"/>
<g clip-path="url(#clip0_140_19868)">
<path d="M31 20.5037L27 24.5037H30C30 27.8137 27.31 30.5037 24 30.5037C22.99 30.5037 22.03 30.2537 21.2 29.8037L19.74 31.2637C20.97 32.0437 22.43 32.5037 24 32.5037C28.42 32.5037 32 28.9237 32 24.5037H35L31 20.5037ZM18 24.5037C18 21.1937 20.69 18.5037 24 18.5037C25.01 18.5037 25.97 18.7537 26.8 19.2037L28.26 17.7437C27.03 16.9637 25.57 16.5037 24 16.5037C19.58 16.5037 16 20.0837 16 24.5037H13L17 28.5037L21 24.5037H18Z" fill="black"/>
</g>
<defs>
<clipPath id="clip0_140_19868">
<rect width="24" height="24" fill="white" transform="translate(12 12.5037)"/>
</clipPath>
</defs>
</svg>
