<svg width="20" height="20" viewBox="0 0 20 20" fill="none" xmlns="http://www.w3.org/2000/svg">
<path d="M12.9249 14.1625C12.6074 13.8449 12.6074 13.3301 12.925 13.0125V13.0125C13.2425 12.6949 13.7574 12.6949 14.075 13.0125L19.25 18.1875C19.5675 18.5051 19.5675 19.0199 19.25 19.3375V19.3375C18.9324 19.6551 18.4175 19.6551 18.1 19.3375L12.9249 14.1625Z" fill="white"/>
<path fill-rule="evenodd" clip-rule="evenodd" d="M12.925 13.0125C15.4655 10.472 15.4655 6.35301 12.925 3.8125C10.3844 1.27199 6.26546 1.27199 3.72495 3.8125C1.18444 6.35301 1.18444 10.472 3.72495 13.0125C6.26546 15.553 10.3844 15.553 12.925 13.0125ZM14.0749 14.1625C17.2506 10.9869 17.2506 5.83813 14.075 2.6625C10.8993 -0.513139 5.75059 -0.513139 2.57495 2.6625C-0.600686 5.83814 -0.600687 10.9869 2.57495 14.1625C5.75059 17.3381 10.8993 17.3381 14.0749 14.1625Z" fill="white"/>
</svg>
