<svg width="17" height="17" viewBox="0 0 17 17" fill="none" xmlns="http://www.w3.org/2000/svg">
<g clip-path="url(#clip0_144_38919)">
<path d="M7.50781 5.16634H8.84115V6.49967H7.50781V5.16634ZM7.50781 7.83301H8.84115V11.833H7.50781V7.83301ZM8.17448 1.83301C4.49448 1.83301 1.50781 4.81967 1.50781 8.49967C1.50781 12.1797 4.49448 15.1663 8.17448 15.1663C11.8545 15.1663 14.8411 12.1797 14.8411 8.49967C14.8411 4.81967 11.8545 1.83301 8.17448 1.83301ZM8.17448 13.833C5.23448 13.833 2.84115 11.4397 2.84115 8.49967C2.84115 5.55967 5.23448 3.16634 8.17448 3.16634C11.1145 3.16634 13.5078 5.55967 13.5078 8.49967C13.5078 11.4397 11.1145 13.833 8.17448 13.833Z" fill="#999999"/>
</g>
<defs>
<clipPath id="clip0_144_38919">
<rect width="16" height="16" fill="white" transform="translate(0.174805 0.5)"/>
</clipPath>
</defs>
</svg>
