<svg width="17" height="22" viewBox="0 0 17 22" fill="none" xmlns="http://www.w3.org/2000/svg">
<g clip-path="url(#clip0_183_2430)">
<path d="M4.76758 9.30576L8.83418 13.0257L12.9526 9.30566" stroke="white" stroke-width="1.5"/>
</g>
<g clip-path="url(#clip1_183_2430)">
<path d="M7.75545 8.53102C7.36013 8.53102 6.96136 8.58329 6.5695 8.69054C6.20182 8.79101 5.98689 9.16504 6.08917 9.52617C6.19146 9.8873 6.57295 10.0991 6.93993 9.99795C8.00425 9.70742 9.1439 10.0054 9.9138 10.7766L14.2181 15.0844C14.7848 15.6518 15.093 16.4019 15.0854 17.1968C15.0778 17.9917 14.7558 18.7357 14.178 19.2924C12.9858 20.4416 11.0638 20.424 9.89376 19.253L5.58949 14.9452C4.84655 14.2019 4.55835 13.1518 4.81752 12.1369C4.91082 11.7731 4.68552 11.4045 4.31577 11.3135C3.94533 11.2225 3.57006 11.4432 3.47745 11.8063C3.1001 13.2834 3.52099 14.8121 4.60327 15.8962L8.90754 20.204C10.6111 21.9092 13.4102 21.935 15.1462 20.2617C15.9873 19.4512 16.4566 18.3671 16.4676 17.2097C16.4787 16.0524 16.0302 14.9601 15.205 14.134L10.9007 9.82621C10.0617 8.98651 8.92343 8.53102 7.75545 8.53102Z" fill="#999999"/>
<path d="M4.88034 0.500347C3.76419 0.500347 2.64804 0.912391 1.79036 1.73851C0.949275 2.54971 0.480008 3.63378 0.46895 4.79117C0.457892 5.94856 0.906426 7.04078 1.73162 7.86691L6.03588 12.1747C7.15894 13.2988 8.81831 13.734 10.3671 13.3104C10.7348 13.2099 10.9497 12.8359 10.8474 12.4747C10.7451 12.1136 10.3643 11.9025 9.99666 12.003C8.93234 12.2935 7.79269 11.9955 7.02279 11.2244L2.71853 6.91656C2.15181 6.34907 1.84358 5.59897 1.85118 4.80407C1.85878 4.00917 2.18084 3.26518 2.75861 2.70855C3.95079 1.55931 5.87278 1.57696 7.04283 2.74792L11.3471 7.05572C12.09 7.79903 12.3782 8.84916 12.1191 9.864C12.0258 10.2278 12.2511 10.5964 12.6208 10.6874C12.9913 10.7791 13.3665 10.5578 13.4591 10.1946C13.8365 8.71747 13.4156 7.18877 12.3333 6.10469L8.02906 1.79689C7.16654 0.933433 6.02344 0.501024 4.87964 0.501024L4.88034 0.500347Z" fill="#999999"/>
</g>
<defs>
<clipPath id="clip0_183_2430">
<rect width="15.5873" height="15.6271" fill="white" transform="translate(1.06641 3.18652)"/>
</clipPath>
<clipPath id="clip1_183_2430">
<rect width="16" height="21" fill="white" transform="matrix(1 0 0 -1 0.46875 21.5)"/>
</clipPath>
</defs>
</svg>
