<svg width="25" height="25" viewBox="0 0 25 25" fill="none" xmlns="http://www.w3.org/2000/svg">
<g clip-path="url(#clip0_140_2252)">
<path d="M15.918 2.625H6.91797C5.81797 2.625 4.91797 3.525 4.91797 4.625V20.625C4.91797 21.725 5.81797 22.625 6.91797 22.625H18.918C20.018 22.625 20.918 21.725 20.918 20.625V7.625L15.918 2.625ZM6.91797 20.625V4.625H14.918V8.625H18.918V20.625H6.91797ZM16.918 10.625V15.625C16.918 17.835 15.128 19.625 12.918 19.625C10.708 19.625 8.91797 17.835 8.91797 15.625V9.125C8.91797 7.655 10.178 6.485 11.678 6.635C12.978 6.765 13.918 7.955 13.918 9.265V15.625H11.918V9.125C11.918 8.845 11.698 8.625 11.418 8.625C11.138 8.625 10.918 8.845 10.918 9.125V15.625C10.918 16.725 11.818 17.625 12.918 17.625C14.018 17.625 14.918 16.725 14.918 15.625V10.625H16.918Z" fill="#999999"/>
</g>
<defs>
<clipPath id="clip0_140_2252">
<rect width="24" height="24" fill="white" transform="translate(0.917969 0.625)"/>
</clipPath>
</defs>
</svg>
