<svg width="21" height="20" viewBox="0 0 21 20" fill="none" xmlns="http://www.w3.org/2000/svg">
<g clip-path="url(#clip0_140_708)">
<path d="M16.9298 12.9167C15.8882 12.9167 14.8882 12.75 13.9549 12.4417C13.6632 12.35 13.3382 12.4167 13.1048 12.6417L11.2715 14.475C8.91318 13.275 6.97985 11.35 5.77985 8.99167L7.61318 7.15C7.84652 6.925 7.91318 6.6 7.82152 6.30833C7.51318 5.375 7.34652 4.375 7.34652 3.33333C7.34652 2.875 6.97152 2.5 6.51318 2.5H3.59652C3.13818 2.5 2.76318 2.875 2.76318 3.33333C2.76318 11.1583 9.10485 17.5 16.9298 17.5C17.3882 17.5 17.7632 17.125 17.7632 16.6667V13.75C17.7632 13.2917 17.3882 12.9167 16.9298 12.9167ZM10.2632 2.5V10.8333L12.7632 8.33333H17.7632V2.5H10.2632Z" fill="#999999"/>
</g>
<defs>
<clipPath id="clip0_140_708">
<rect width="20" height="20" fill="white" transform="translate(0.263184)"/>
</clipPath>
</defs>
</svg>
