<svg width="25" height="24" viewBox="0 0 25 24" fill="none" xmlns="http://www.w3.org/2000/svg">
<g clip-path="url(#clip0_140_557)">
<path d="M9.26318 11H7.26318V13H9.26318V11ZM13.2632 11H11.2632V13H13.2632V11ZM17.2632 11H15.2632V13H17.2632V11ZM19.2632 4H18.2632V2H16.2632V4H8.26318V2H6.26318V4H5.26318C4.15318 4 3.27318 4.9 3.27318 6L3.26318 20C3.26318 21.1 4.15318 22 5.26318 22H19.2632C20.3632 22 21.2632 21.1 21.2632 20V6C21.2632 4.9 20.3632 4 19.2632 4ZM19.2632 20H5.26318V9H19.2632V20Z" fill="white"/>
</g>
<defs>
<clipPath id="clip0_140_557">
<rect width="24" height="24" fill="white" transform="translate(0.263184)"/>
</clipPath>
</defs>
</svg>
