<svg width="37" height="39" viewBox="0 0 37 39" fill="none" xmlns="http://www.w3.org/2000/svg">
<g clip-path="url(#clip0_1586_13201)">
<path d="M36.3641 14.4234C36.3641 14.4146 36.363 14.4058 36.3619 14.3971C36.3586 14.3752 36.3553 14.3543 36.351 14.3324C36.3499 14.3269 36.3488 14.3214 36.3477 14.316C36.3346 14.2623 36.3161 14.2085 36.291 14.1581C36.2877 14.1515 36.2834 14.145 36.2801 14.1384C36.2714 14.1209 36.2616 14.1033 36.2507 14.0869C36.2452 14.077 36.2387 14.0682 36.2321 14.0595C36.2256 14.0507 36.2201 14.0419 36.2136 14.0332C36.2103 14.0277 36.206 14.0244 36.2016 14.0189C36.194 14.0101 36.1874 14.0014 36.1798 13.9926C36.1678 13.9795 36.1558 13.9663 36.1438 13.9542C36.1373 13.9477 36.1297 13.94 36.122 13.9334C36.1068 13.9192 36.0915 13.906 36.0751 13.894C36.0708 13.8907 36.0675 13.8863 36.0631 13.8841L18.6041 0.65622C18.3294 0.447959 17.9489 0.449055 17.6763 0.660605L0.548725 13.8852C0.548725 13.8852 0.542183 13.8918 0.537822 13.894C0.522559 13.9071 0.507296 13.9203 0.492032 13.9334C0.485491 13.94 0.477859 13.9466 0.471318 13.9532C0.459325 13.9663 0.447333 13.9795 0.43534 13.9926C0.427708 14.0014 0.421167 14.0091 0.414626 14.0178C0.411355 14.0222 0.408084 14.0255 0.404813 14.0299C0.397182 14.0397 0.391731 14.0496 0.384099 14.0595C0.378648 14.0682 0.372106 14.077 0.366655 14.0858C0.355753 14.1044 0.344851 14.123 0.335038 14.1417C0.332858 14.1472 0.329587 14.1515 0.326316 14.157C0.301241 14.2085 0.282707 14.2612 0.269624 14.3149C0.268534 14.3203 0.267444 14.3269 0.266354 14.3335C0.261993 14.3543 0.257632 14.3752 0.255451 14.396C0.254361 14.4047 0.253271 14.4135 0.253271 14.4223C0.25109 14.4409 0.25 14.4596 0.25 14.4793C0.25 14.4848 0.25 14.4902 0.25 14.4957V37.7289C0.25 37.7771 0.255451 37.8243 0.263083 37.8703C0.263083 37.8725 0.263083 37.8758 0.264173 37.878C0.272895 37.924 0.287068 37.969 0.303422 38.0117C0.304512 38.015 0.305602 38.0183 0.306692 38.0216C0.324136 38.0654 0.347031 38.1071 0.372106 38.1465C0.374287 38.1498 0.375377 38.152 0.377558 38.1553C0.43425 38.2408 0.507296 38.3142 0.591244 38.3701C0.593424 38.3723 0.596695 38.3734 0.599966 38.3756C0.639214 38.4008 0.680643 38.4238 0.724252 38.4414C0.727523 38.4425 0.730794 38.4436 0.734065 38.4447C0.776584 38.4611 0.821283 38.4754 0.867073 38.4841C0.869254 38.4841 0.872524 38.4841 0.874705 38.4852C0.920495 38.494 0.967375 38.4984 1.01535 38.4984H35.602C35.6499 38.4984 35.6968 38.4929 35.7426 38.4852C35.7448 38.4852 35.7481 38.4852 35.7503 38.4841C35.796 38.4754 35.8407 38.4611 35.8833 38.4447C35.8865 38.4436 35.8898 38.4425 35.8931 38.4414C35.9367 38.4228 35.9781 38.4008 36.0174 38.3756C36.0195 38.3734 36.0228 38.3723 36.025 38.3712C36.11 38.3142 36.1831 38.2408 36.2398 38.1553C36.2419 38.1531 36.243 38.1498 36.2441 38.1476C36.2692 38.1082 36.2921 38.0665 36.3095 38.0216C36.3106 38.0183 36.3117 38.015 36.3128 38.0117C36.3303 37.969 36.3433 37.924 36.3521 37.878C36.3521 37.8758 36.3521 37.8725 36.3532 37.8703C36.3619 37.8243 36.3662 37.7771 36.3662 37.7289V14.4968C36.3662 14.4968 36.3662 14.4859 36.3662 14.4815C36.3662 14.4617 36.3651 14.4431 36.363 14.4234H36.3641ZM1.78178 16.0478L12.997 24.5942L1.78178 35.8699V16.0467V16.0478ZM14.2301 25.5336L17.8453 28.2892C17.9827 28.3933 18.1451 28.4459 18.3087 28.4459C18.4722 28.4459 18.6346 28.3933 18.772 28.2892L22.3883 25.5336L33.7529 36.9594H2.86548L14.2301 25.5336ZM23.6192 24.5942L34.8345 16.0478V35.871L23.6192 24.5953V24.5942ZM18.1473 2.23901L34.3308 14.499L18.3087 26.7086L2.27893 14.4924L18.1473 2.23901Z" fill="#DDDDDD"/>
</g>
<defs>
<clipPath id="clip0_1586_13201">
<rect width="36.1184" height="38" fill="white" transform="translate(0.248535 0.5)"/>
</clipPath>
</defs>
</svg>
