<svg width="33" height="32" viewBox="0 0 33 32" fill="none" xmlns="http://www.w3.org/2000/svg">
<path d="M16.6913 17.8667L10.158 24.4001C9.91357 24.6445 9.60246 24.7667 9.22468 24.7667C8.8469 24.7667 8.53579 24.6445 8.29135 24.4001C8.0469 24.1556 7.92468 23.8445 7.92468 23.4667C7.92468 23.089 8.0469 22.7778 8.29135 22.5334L14.8247 16.0001L8.29135 9.46673C8.0469 9.22229 7.92468 8.91118 7.92468 8.5334C7.92468 8.15562 8.0469 7.84451 8.29135 7.60006C8.53579 7.35562 8.8469 7.2334 9.22468 7.2334C9.60246 7.2334 9.91357 7.35562 10.158 7.60006L16.6913 14.1334L23.2247 7.60006C23.4691 7.35562 23.7802 7.2334 24.158 7.2334C24.5358 7.2334 24.8469 7.35562 25.0913 7.60006C25.3358 7.84451 25.458 8.15562 25.458 8.5334C25.458 8.91118 25.3358 9.22229 25.0913 9.46673L18.558 16.0001L25.0913 22.5334C25.3358 22.7778 25.458 23.089 25.458 23.4667C25.458 23.8445 25.3358 24.1556 25.0913 24.4001C24.8469 24.6445 24.5358 24.7667 24.158 24.7667C23.7802 24.7667 23.4691 24.6445 23.2247 24.4001L16.6913 17.8667Z" fill="white"/>
</svg>
