<svg width="86" height="42" viewBox="0 0 86 42" fill="none" xmlns="http://www.w3.org/2000/svg">
<path d="M21.8647 11.759V13.111C21.8387 14.515 21.8387 16.569 21.2407 19.195L18.9007 18.987C19.3687 16.751 19.4467 15.061 19.4727 13.735H10.3727V11.759H21.8647ZM9.02073 21.171C10.4247 21.171 12.0107 21.145 13.6487 21.119V16.751H16.0407V21.041C18.4847 20.963 20.9807 20.781 23.2687 20.495L23.4247 22.211C18.6667 23.017 13.3367 23.147 9.22873 23.147L9.02073 21.171ZM11.9847 28.919C11.9587 26.319 14.8967 24.785 19.6807 24.759C24.4387 24.785 27.3507 26.319 27.3767 28.919C27.3507 31.571 24.4387 33.105 19.6807 33.079C14.8967 33.105 11.9587 31.571 11.9847 28.919ZM14.4287 28.919C14.4027 30.401 16.3787 31.181 19.6807 31.207C22.9307 31.181 24.9067 30.401 24.9327 28.919C24.9067 27.489 22.9307 26.657 19.6807 26.631C16.3787 26.657 14.4027 27.489 14.4287 28.919ZM24.7247 24.499V10.407H27.1687V16.439H30.3407V18.467H27.1687V24.499H24.7247ZM49.5354 12.591V14.827C49.5354 17.635 49.5354 20.781 48.6514 25.435L46.2594 25.175C47.1174 20.781 47.1174 17.557 47.1434 14.827V14.567H33.3114V12.591H49.5354ZM31.1274 30.063V28.087H39.0314V20.079H41.4234V28.087H51.8754V30.063H31.1274Z" fill="#2863F7"/>
<rect x="1.78668" y="1.81494" width="82.3279" height="39.0166" rx="19.5083" stroke="#BBBBBB" stroke-width="2"/>
<circle cx="66.6562" cy="21.3233" r="10.6483" stroke="#2862F6" stroke-width="2"/>
<line x1="66.8462" y1="14.2517" x2="66.8462" y2="17.2423" stroke="#2862F6" stroke-width="2"/>
<line x1="66.8462" y1="18.7708" x2="66.8462" y2="29.2052" stroke="#2862F6" stroke-width="2"/>
</svg>
