<svg width="141" height="26" viewBox="0 0 141 26" fill="none" xmlns="http://www.w3.org/2000/svg">
<g clip-path="url(#clip0_412_10355)">
<path d="M19.5796 0V13.1082L10.602 0H0.885254V26H10.5659V12.8738L19.5435 26H29.2422V0H19.5796Z" fill="white"/>
<path d="M133.061 16.2635C136.505 15.3079 138.722 12.8197 138.722 8.83492C138.722 2.1456 133.404 -0.0180664 126.409 -0.0180664H114.313V25.9819H123.994V17.8682L129.762 25.9819H140.885L133.061 16.2635ZM128.32 10.9805C127.761 11.4313 126.662 11.6657 125.778 11.6657H123.705V6.54504H125.742C126.716 6.54504 127.833 6.77944 128.374 7.24823C128.915 7.71702 129.167 8.34809 129.167 9.15946C129.167 9.91675 128.897 10.5298 128.338 10.9805H128.32Z" fill="white"/>
<path d="M90.7334 0H110.347V6.76144H100.324V9.82663H109.572V16.2094H100.324V19.2205H110.672V26H90.7514V0H90.7334Z" fill="white"/>
<path d="M52.5336 0H41.5009L31.3154 26H42.0777L43.0151 22.6103H51.0012L51.9387 26H62.701L52.5336 0ZM44.6015 16.5881L46.873 8.00555H47.1434L49.4148 16.5881H44.6015Z" fill="white"/>
<path d="M78.114 0L73.3548 15.6685H73.0844L68.3072 0H57.7612L68.6497 26H77.7715L88.66 0H78.114Z" fill="white"/>
</g>
<rect x="1.38525" y="0.5" width="139" height="25" stroke="#999999" stroke-opacity="0.3"/>
<defs>
<clipPath id="clip0_412_10355">
<rect x="0.885254" width="140" height="26" fill="white"/>
</clipPath>
</defs>
</svg>
