<svg width="20" height="18" viewBox="0 0 20 18" fill="none" xmlns="http://www.w3.org/2000/svg">
<path d="M12.9274 12.7972C12.6167 12.5124 12.6167 12.0507 12.9274 11.7659C13.238 11.4812 13.7417 11.4812 14.0524 11.7659L18.9822 16.285C19.2929 16.5698 19.2929 17.0315 18.9822 17.3162C18.6716 17.601 18.1679 17.601 17.8573 17.3162L12.9274 12.7972Z" fill="white"/>
<path fill-rule="evenodd" clip-rule="evenodd" d="M12.9274 11.7659C15.4126 9.4878 15.4558 5.83377 13.0238 3.60443C10.5918 1.3751 6.60558 1.41466 4.12034 3.69281C1.63509 5.97095 1.59192 9.62498 4.02393 11.8543C6.45593 14.0837 10.4421 14.0441 12.9274 11.7659ZM14.0283 12.7751C17.1348 9.92741 17.1888 5.35986 14.1488 2.5732C11.1088 -0.213473 6.12601 -0.164014 3.01945 2.68366C-0.0871053 5.53134 -0.14106 10.0989 2.89894 12.8856C5.93894 15.6722 10.9217 15.6228 14.0283 12.7751Z" fill="white"/>
</svg>
