<svg width="32" height="33" viewBox="0 0 32 33" fill="none" xmlns="http://www.w3.org/2000/svg">
<path d="M15.9999 18.3704L9.46661 24.9037C9.22216 25.1482 8.91105 25.2704 8.53328 25.2704C8.1555 25.2704 7.84439 25.1482 7.59994 24.9037C7.3555 24.6593 7.23328 24.3482 7.23328 23.9704C7.23328 23.5926 7.3555 23.2815 7.59994 23.0371L14.1333 16.5037L7.59994 9.97039C7.3555 9.72595 7.23328 9.41484 7.23328 9.03706C7.23328 8.65928 7.3555 8.34817 7.59994 8.10373C7.84439 7.85928 8.1555 7.73706 8.53328 7.73706C8.91105 7.73706 9.22216 7.85928 9.46661 8.10373L15.9999 14.6371L22.5333 8.10373C22.7777 7.85928 23.0888 7.73706 23.4666 7.73706C23.8444 7.73706 24.1555 7.85928 24.3999 8.10373C24.6444 8.34817 24.7666 8.65928 24.7666 9.03706C24.7666 9.41484 24.6444 9.72595 24.3999 9.97039L17.8666 16.5037L24.3999 23.0371C24.6444 23.2815 24.7666 23.5926 24.7666 23.9704C24.7666 24.3482 24.6444 24.6593 24.3999 24.9037C24.1555 25.1482 23.8444 25.2704 23.4666 25.2704C23.0888 25.2704 22.7777 25.1482 22.5333 24.9037L15.9999 18.3704Z" fill="white"/>
</svg>
