<svg width="19" height="17" viewBox="0 0 19 17" fill="none" xmlns="http://www.w3.org/2000/svg">
<path d="M12.6819 12.2188C12.3836 11.9453 12.3836 11.502 12.6819 11.2286C12.9802 10.9551 13.4638 10.9551 13.7621 11.2286L18.6083 15.6709C18.9066 15.9443 18.9066 16.3877 18.6083 16.6611C18.31 16.9345 17.8263 16.9345 17.528 16.6611L12.6819 12.2188Z" fill="white"/>
<path fill-rule="evenodd" clip-rule="evenodd" d="M12.6819 11.2286C15.0683 9.04106 15.0731 5.49884 12.6927 3.3168C10.3123 1.13477 6.44805 1.13921 4.06168 3.32672C1.6753 5.51423 1.67046 9.05645 4.05086 11.2385C6.43126 13.4205 10.2955 13.4161 12.6819 11.2286ZM13.7594 12.2163C16.7424 9.48191 16.7484 5.05414 13.7729 2.32659C10.7974 -0.40095 5.96712 -0.3954 2.98415 2.33899C0.00118282 5.07338 -0.00487093 9.50115 2.97063 12.2287C5.94613 14.9562 10.7764 14.9507 13.7594 12.2163Z" fill="white"/>
</svg>
