<svg width="25" height="24" viewBox="0 0 25 24" fill="none" xmlns="http://www.w3.org/2000/svg">
<g clip-path="url(#clip0_183_9787)">
<g clip-path="url(#clip1_183_9787)">
<path d="M16.293 22H3.92336C2.7819 22 1.8501 21.0811 1.8501 19.9555V7.95276H10.7682V8.90991H2.82073V19.9555C2.82073 20.5566 3.3138 21.0428 3.92336 21.0428H16.2892C16.8987 21.0428 17.3918 20.5566 17.3918 19.9555V15.633H18.3624V19.9555C18.3624 21.0849 17.4306 22 16.2892 22H16.293Z" fill="#999999"/>
<path d="M7.90325 3.00232H6.93262V5.12338H7.90325V3.00232Z" fill="#999999"/>
<path d="M10.5937 3.00232H9.62305V5.12338H10.5937V3.00232Z" fill="#999999"/>
<path d="M5.21233 3.00232H4.2417V5.12338H5.21233V3.00232Z" fill="#999999"/>
<path d="M10.7684 8.90998H1V4.6449H11.5488V5.60205H1.97063V7.95283H10.7684V8.90998Z" fill="#999999"/>
<path d="M7.16524 14.4998H5.44141V15.4569H7.16524V14.4998Z" fill="#999999"/>
<path d="M7.16524 11.2645H5.44141V12.2217H7.16524V11.2645Z" fill="#999999"/>
<path d="M14.775 14.4998H13.0511V15.4569H14.775V14.4998Z" fill="#999999"/>
<path d="M10.9701 14.4998H9.24628V15.4569H10.9701V14.4998Z" fill="#999999"/>
<path d="M10.9701 11.2645H9.24628V12.2217H10.9701V11.2645Z" fill="#999999"/>
<path d="M7.16524 17.7311H5.44141V18.6882H7.16524V17.7311Z" fill="#999999"/>
<path d="M14.775 17.7311H13.0511V18.6882H14.775V17.7311Z" fill="#999999"/>
<path d="M10.9701 17.7311H9.24628V18.6882H10.9701V17.7311Z" fill="#999999"/>
<path d="M19.8031 1H15.9556V1.95716H19.8031V1Z" fill="#999999"/>
<path d="M18.3666 2.87598H17.396V4.50697H18.3666V2.87598Z" fill="#999999"/>
<path d="M13.8976 7.95276H12.2437V8.90991H13.8976V7.95276Z" fill="#999999"/>
<path d="M18.3666 12.3557H17.396V13.9867H18.3666V12.3557Z" fill="#999999"/>
<path d="M23.5148 7.95276H21.8608V8.90991H23.5148V7.95276Z" fill="#999999"/>
<path d="M19.213 9.8211L17.396 8.69548V5.45264H18.3666V8.16713L19.7294 9.00943L19.213 9.8211Z" fill="#999999"/>
<path d="M17.881 14.4691C14.5071 14.4691 11.7622 11.7622 11.7622 8.43516C11.7622 5.10808 14.5071 2.40125 17.881 2.40125C21.2549 2.40125 23.9999 5.10808 23.9999 8.43516C23.9999 11.7622 21.2549 14.4691 17.881 14.4691ZM17.881 3.35457C15.0429 3.35457 12.7328 5.6326 12.7328 8.43133C12.7328 11.2301 15.0429 13.5081 17.881 13.5081C20.7192 13.5081 23.0293 11.2301 23.0293 8.43133C23.0293 5.6326 20.7192 3.35457 17.881 3.35457Z" fill="#999999"/>
<path d="M16.0052 21.9052H3.73901C2.60711 21.9052 1.68311 20.9946 1.68311 19.8792V7.98486H10.5266V8.93337H2.64561V19.8792C2.64561 20.4748 3.13456 20.9567 3.73901 20.9567H16.0013C16.6058 20.9567 17.0947 20.4748 17.0947 19.8792V15.5957H18.0572V19.8792C18.0572 20.9984 17.1332 21.9052 16.0013 21.9052H16.0052Z" fill="#999999" stroke="#999999" stroke-width="0.5" stroke-miterlimit="10"/>
<path d="M7.68516 3.0791H6.72266V5.181H7.68516V3.0791Z" fill="#999999" stroke="#999999" stroke-width="0.5" stroke-miterlimit="10"/>
<path d="M10.3531 3.0791H9.39062V5.181H10.3531V3.0791Z" fill="#999999" stroke="#999999" stroke-width="0.5" stroke-miterlimit="10"/>
<path d="M5.01719 3.0791H4.05469V5.181H5.01719V3.0791Z" fill="#999999" stroke="#999999" stroke-width="0.5" stroke-miterlimit="10"/>
<path d="M10.5265 8.93335H0.839844V4.70679H11.3003V5.6553H1.80235V7.98484H10.5265V8.93335Z" fill="#999999" stroke="#999999" stroke-width="0.5" stroke-miterlimit="10"/>
<path d="M6.95355 14.4727H5.24414V15.4212H6.95355V14.4727Z" fill="#999999" stroke="#999999" stroke-width="0.5" stroke-miterlimit="10"/>
<path d="M6.95355 11.2667H5.24414V12.2152H6.95355V11.2667Z" fill="#999999" stroke="#999999" stroke-width="0.5" stroke-miterlimit="10"/>
<path d="M14.4996 14.4727H12.7902V15.4212H14.4996V14.4727Z" fill="#999999" stroke="#999999" stroke-width="0.5" stroke-miterlimit="10"/>
<path d="M10.7266 14.4727H9.01715V15.4212H10.7266V14.4727Z" fill="#999999" stroke="#999999" stroke-width="0.5" stroke-miterlimit="10"/>
<path d="M10.7266 11.2667H9.01715V12.2152H10.7266V11.2667Z" fill="#999999" stroke="#999999" stroke-width="0.5" stroke-miterlimit="10"/>
<path d="M6.95355 17.6748H5.24414V18.6233H6.95355V17.6748Z" fill="#999999" stroke="#999999" stroke-width="0.5" stroke-miterlimit="10"/>
<path d="M14.4996 17.6748H12.7902V18.6233H14.4996V17.6748Z" fill="#999999" stroke="#999999" stroke-width="0.5" stroke-miterlimit="10"/>
<path d="M10.7266 17.6748H9.01715V18.6233H10.7266V17.6748Z" fill="#999999" stroke="#999999" stroke-width="0.5" stroke-miterlimit="10"/>
<path d="M17.5798 14.4423C14.2342 14.4423 11.5122 11.7599 11.5122 8.46292C11.5122 5.16591 14.2342 2.48352 17.5798 2.48352C20.9255 2.48352 23.6475 5.16591 23.6475 8.46292C23.6475 11.7599 20.9255 14.4423 17.5798 14.4423ZM17.5798 3.42824C14.7655 3.42824 12.4747 5.68569 12.4747 8.45913C12.4747 11.2326 14.7655 13.49 17.5798 13.49C20.3942 13.49 22.685 11.2326 22.685 8.45913C22.685 5.68569 20.3942 3.42824 17.5798 3.42824Z" fill="#999999" stroke="#999999" stroke-width="0.5" stroke-miterlimit="10"/>
<path d="M19.4858 1.09485H15.6704V2.04336H19.4858V1.09485Z" fill="#999999" stroke="#999999" stroke-width="0.5" stroke-miterlimit="10"/>
<path d="M18.0611 2.95398H17.0986V4.57024H18.0611V2.95398Z" fill="#999999" stroke="#999999" stroke-width="0.5" stroke-miterlimit="10"/>
<path d="M13.6299 7.98486H11.9897V8.93337H13.6299V7.98486Z" fill="#999999" stroke="#999999" stroke-width="0.5" stroke-miterlimit="10"/>
<path d="M18.0611 12.348H17.0986V13.9643H18.0611V12.348Z" fill="#999999" stroke="#999999" stroke-width="0.5" stroke-miterlimit="10"/>
<path d="M23.166 7.98486H21.5259V8.93337H23.166V7.98486Z" fill="#999999" stroke="#999999" stroke-width="0.5" stroke-miterlimit="10"/>
<path d="M18.9004 9.83632L17.0986 8.72087V5.50732H18.0611V8.1973L19.4125 9.03199L18.9004 9.83632Z" fill="#999999" stroke="#999999" stroke-width="0.5" stroke-miterlimit="10"/>
</g>
</g>
<defs>
<clipPath id="clip0_183_9787">
<rect width="24" height="24" fill="white" transform="translate(0.654297)"/>
</clipPath>
<clipPath id="clip1_183_9787">
<rect width="23" height="21" fill="white" transform="translate(1 1)"/>
</clipPath>
</defs>
</svg>
