<svg width="25" height="24" viewBox="0 0 25 24" fill="none" xmlns="http://www.w3.org/2000/svg">
<g clip-path="url(#clip0_183_9857)">
<path d="M19.7943 12.94C19.8343 12.64 19.8543 12.33 19.8543 12C19.8543 11.68 19.8343 11.36 19.7843 11.06L21.8143 9.48002C21.9943 9.34002 22.0443 9.07002 21.9343 8.87002L20.0143 5.55002C19.8943 5.33002 19.6443 5.26002 19.4243 5.33002L17.0343 6.29002C16.5343 5.91002 16.0043 5.59002 15.4143 5.35002L15.0543 2.81002C15.0143 2.57002 14.8143 2.40002 14.5743 2.40002H10.7343C10.4943 2.40002 10.3043 2.57002 10.2643 2.81002L9.90428 5.35002C9.31428 5.59002 8.77428 5.92002 8.28428 6.29002L5.89428 5.33002C5.67428 5.25002 5.42428 5.33002 5.30428 5.55002L3.39428 8.87002C3.27428 9.08002 3.31428 9.34002 3.51428 9.48002L5.54428 11.06C5.49428 11.36 5.45428 11.69 5.45428 12C5.45428 12.31 5.47428 12.64 5.52428 12.94L3.49428 14.52C3.31428 14.66 3.26428 14.93 3.37428 15.13L5.29428 18.45C5.41428 18.67 5.66428 18.74 5.88428 18.67L8.27428 17.71C8.77428 18.09 9.30428 18.41 9.89428 18.65L10.2543 21.19C10.3043 21.43 10.4943 21.6 10.7343 21.6H14.5743C14.8143 21.6 15.0143 21.43 15.0443 21.19L15.4043 18.65C15.9943 18.41 16.5343 18.09 17.0243 17.71L19.4143 18.67C19.6343 18.75 19.8843 18.67 20.0043 18.45L21.9243 15.13C22.0443 14.91 21.9943 14.66 21.8043 14.52L19.7943 12.94ZM12.6543 15.6C10.6743 15.6 9.05428 13.98 9.05428 12C9.05428 10.02 10.6743 8.40002 12.6543 8.40002C14.6343 8.40002 16.2543 10.02 16.2543 12C16.2543 13.98 14.6343 15.6 12.6543 15.6Z" fill="#999999"/>
</g>
<defs>
<clipPath id="clip0_183_9857">
<rect width="24" height="24" fill="white" transform="translate(0.654297)"/>
</clipPath>
</defs>
</svg>
