<svg width="25" height="24" viewBox="0 0 25 24" fill="none" xmlns="http://www.w3.org/2000/svg">
<g clip-path="url(#clip0_183_9842)">
<path d="M20.6543 2H4.6543C3.5543 2 2.6643 2.9 2.6643 4L2.6543 22L6.6543 18H20.6543C21.7543 18 22.6543 17.1 22.6543 16V4C22.6543 2.9 21.7543 2 20.6543 2ZM8.6543 14H6.6543V12H8.6543V14ZM8.6543 11H6.6543V9H8.6543V11ZM8.6543 8H6.6543V6H8.6543V8ZM15.6543 14H10.6543V12H15.6543V14ZM18.6543 11H10.6543V9H18.6543V11ZM18.6543 8H10.6543V6H18.6543V8Z" fill="#999999"/>
</g>
<defs>
<clipPath id="clip0_183_9842">
<rect width="24" height="24" fill="white" transform="translate(0.654297)"/>
</clipPath>
</defs>
</svg>
