<svg width="167" height="34" viewBox="0 0 167 34" fill="none" xmlns="http://www.w3.org/2000/svg">
<path d="M34.4548 0.5H26.846V10.5509H29.3338V3.00055H34.4548C42.1301 3.00055 48.3769 9.27931 48.3769 16.9939C48.3769 24.7085 42.1301 30.9873 34.4548 30.9873H29.9936V33.4878H34.4548C43.5041 33.4878 50.8708 26.0896 50.8708 16.9878C50.8708 7.88606 43.5041 0.5 34.4548 0.5Z" fill="#4446A9"/>
<path d="M20.1513 23.4734L18.2748 25.1161L23.3655 30.9873H17.0703C9.39496 30.9873 3.14817 24.7085 3.14817 16.9939C3.14817 9.27931 9.38891 3.00055 17.0703 3.00055H22.8147V0.5H17.0703C8.01486 0.5 0.654297 7.89823 0.654297 17C0.654297 26.1018 8.01486 33.5 17.0703 33.5H26.2589V30.5249L20.1513 23.4795V23.4734Z" fill="#4446A9"/>
<path d="M57.8136 16.9878C57.8136 12.1145 61.3184 8.54923 66.2335 8.54923C70.3193 8.54923 73.3883 10.9463 74.2296 14.031H71.9476C71.2878 11.9989 69.024 10.484 66.2759 10.484C62.5653 10.484 59.9201 13.2035 59.9201 16.9878C59.9201 20.7721 62.5653 23.5343 66.3122 23.5343C69.599 23.5343 72.0445 21.3562 72.2866 18.4358H65.8945V16.6045H74.5323V17.3285C74.5323 22.0802 70.9246 25.4264 66.2335 25.4264C61.5424 25.4264 57.8136 21.8612 57.8136 16.9878Z" fill="#4446A9"/>
<path d="M87.7704 25.0675L84.1204 19.3241C83.8177 19.3424 83.5211 19.3667 83.2185 19.3667H79.3082V25.0675H77.2017V8.92644H83.2124C87.2619 8.92644 89.6469 10.9585 89.6469 14.1466C89.6469 16.422 88.4241 18.1134 86.2208 18.8982L90.2522 25.0614H87.7644L87.7704 25.0675ZM87.5525 14.1466C87.5525 11.9685 85.8516 10.8247 83.0611 10.8247H79.3142V17.4746H83.0611C85.8455 17.4746 87.5525 16.3247 87.5525 14.1527V14.1466Z" fill="#4446A9"/>
<path d="M91.6202 16.9878C91.6202 12.1145 95.2097 8.54923 100.076 8.54923C104.943 8.54923 108.557 12.1145 108.557 16.9878C108.557 21.8612 104.967 25.4264 100.101 25.4264C95.2339 25.4264 91.6202 21.8612 91.6202 16.9878ZM106.45 16.9878C106.45 13.1792 103.745 10.484 100.076 10.484C96.4082 10.484 93.7206 13.1853 93.7206 16.9878C93.7206 20.7904 96.4263 23.4917 100.094 23.4917C103.763 23.4917 106.45 20.7721 106.45 16.9878Z" fill="#4446A9"/>
<path d="M113.205 8.92644V18.1134C113.205 21.3562 115.07 23.51 118.115 23.51C121.159 23.51 123.005 21.3562 123.005 18.1134V8.92644H125.112V18.1134C125.112 22.5426 122.364 25.4447 118.115 25.4447C113.865 25.4447 111.099 22.5426 111.099 18.1134V8.92644H113.205Z" fill="#4446A9"/>
<path d="M134.028 8.92644C138.199 8.92644 140.644 11.1654 140.644 14.5238C140.644 17.8822 138.199 20.1211 134.028 20.1211H130.439V25.0553H128.332V8.92644H134.028ZM138.538 14.5299C138.538 12.1327 136.776 10.8429 133.871 10.8429H130.445V18.2168H133.871C136.776 18.2168 138.538 16.927 138.538 14.5299Z" fill="#4446A9"/>
<path d="M149.379 18.2351H142.363V16.422H149.379V18.2351Z" fill="#4446A9"/>
<path d="M157.914 8.92644C163.446 8.92644 166.654 12.1875 166.654 17.0061C166.654 21.8247 163.446 25.0614 157.914 25.0614H152.224V8.92644H157.914ZM164.53 17.0061C164.53 13.0758 162.042 10.8186 157.974 10.8186H154.324V23.1449H157.974C162.042 23.1449 164.53 20.9303 164.53 17V17.0061Z" fill="#4446A9"/>
</svg>
