<svg width="25" height="24" viewBox="0 0 25 24" fill="none" xmlns="http://www.w3.org/2000/svg">
<g clip-path="url(#clip0_183_9850)">
<path d="M9.6543 11.75C8.9643 11.75 8.4043 12.31 8.4043 13C8.4043 13.69 8.9643 14.25 9.6543 14.25C10.3443 14.25 10.9043 13.69 10.9043 13C10.9043 12.31 10.3443 11.75 9.6543 11.75ZM15.6543 11.75C14.9643 11.75 14.4043 12.31 14.4043 13C14.4043 13.69 14.9643 14.25 15.6543 14.25C16.3443 14.25 16.9043 13.69 16.9043 13C16.9043 12.31 16.3443 11.75 15.6543 11.75ZM12.6543 2C7.1343 2 2.6543 6.48 2.6543 12C2.6543 17.52 7.1343 22 12.6543 22C18.1743 22 22.6543 17.52 22.6543 12C22.6543 6.48 18.1743 2 12.6543 2ZM12.6543 20C8.2443 20 4.6543 16.41 4.6543 12C4.6543 11.71 4.6743 11.42 4.7043 11.14C7.0643 10.09 8.9343 8.16 9.9143 5.77C11.7243 8.33 14.7043 10 18.0743 10C18.8543 10 19.6043 9.91 20.3243 9.74C20.5343 10.45 20.6543 11.21 20.6543 12C20.6543 16.41 17.0643 20 12.6543 20Z" fill="#999999"/>
</g>
<defs>
<clipPath id="clip0_183_9850">
<rect width="24" height="24" fill="white" transform="translate(0.654297)"/>
</clipPath>
</defs>
</svg>
