<svg width="25" height="24" viewBox="0 0 25 24" fill="none" xmlns="http://www.w3.org/2000/svg">
<g clip-path="url(#clip0_183_9772)">
<path d="M12.6543 7V3H2.6543V21H22.6543V7H12.6543ZM6.6543 19H4.6543V17H6.6543V19ZM6.6543 15H4.6543V13H6.6543V15ZM6.6543 11H4.6543V9H6.6543V11ZM6.6543 7H4.6543V5H6.6543V7ZM10.6543 19H8.6543V17H10.6543V19ZM10.6543 15H8.6543V13H10.6543V15ZM10.6543 11H8.6543V9H10.6543V11ZM10.6543 7H8.6543V5H10.6543V7ZM20.6543 19H12.6543V17H14.6543V15H12.6543V13H14.6543V11H12.6543V9H20.6543V19ZM18.6543 11H16.6543V13H18.6543V11ZM18.6543 15H16.6543V17H18.6543V15Z" fill="#999999"/>
</g>
<defs>
<clipPath id="clip0_183_9772">
<rect width="24" height="24" fill="white" transform="translate(0.654297)"/>
</clipPath>
</defs>
</svg>
