<svg width="25" height="24" viewBox="0 0 25 24" fill="none" xmlns="http://www.w3.org/2000/svg">
<g clip-path="url(#clip0_183_9780)">
<path d="M9.0543 18.2C9.4343 18.7 9.6543 19.32 9.6543 20C9.6543 21.66 8.3143 23 6.6543 23C4.9943 23 3.6543 21.66 3.6543 20C3.6543 18.34 4.9943 17 6.6543 17C7.0943 17 7.5043 17.09 7.8843 17.26L9.2943 15.49C8.3743 14.46 8.0043 13.1 8.2043 11.8L6.1743 11.12C5.6343 11.95 4.7143 12.5 3.6543 12.5C1.9943 12.5 0.654297 11.16 0.654297 9.5C0.654297 7.84 1.9943 6.5 3.6543 6.5C5.3143 6.5 6.6543 7.84 6.6543 9.5C6.6543 9.57 6.6543 9.64 6.6443 9.71L8.6743 10.39C9.3143 9.18 10.4943 8.3 11.8943 8.07V5.91C10.6143 5.57 9.6543 4.4 9.6543 3C9.6543 1.34 10.9943 0 12.6543 0C14.3143 0 15.6543 1.34 15.6543 3C15.6543 4.4 14.6943 5.57 13.4043 5.91V8.07C14.8043 8.3 15.9843 9.18 16.6243 10.39L18.6543 9.71C18.6543 9.64 18.6543 9.57 18.6543 9.5C18.6543 7.84 19.9943 6.5 21.6543 6.5C23.3143 6.5 24.6543 7.84 24.6543 9.5C24.6543 11.16 23.3143 12.5 21.6543 12.5C20.5943 12.5 19.6743 11.95 19.1343 11.13L17.1043 11.81C17.3043 13.1 16.9443 14.46 16.0143 15.5L17.4243 17.27C17.8043 17.09 18.2143 17 18.6543 17C20.3143 17 21.6543 18.34 21.6543 20C21.6543 21.66 20.3143 23 18.6543 23C16.9943 23 15.6543 21.66 15.6543 20C15.6543 19.32 15.8743 18.7 16.2543 18.2L14.8443 16.43C13.4943 17.18 11.8343 17.19 10.4743 16.43L9.0543 18.2Z" fill="#999999"/>
</g>
<defs>
<clipPath id="clip0_183_9780">
<rect width="24" height="24" fill="white" transform="translate(0.654297)"/>
</clipPath>
</defs>
</svg>
